<svg xmlns="http://www.w3.org/2000/svg" width="1600" height="900" viewBox="0 0 1600 900">
<defs>
<radialGradient id="g1" cx="0.2" cy="0.2" r="0.8"><stop offset="0%" stop-color="#2563EB" stop-opacity="0.25"/><stop offset="100%" stop-color="#2563EB" stop-opacity="0"/></radialGradient>
<radialGradient id="g2" cx="0.85" cy="0.75" r="0.7"><stop offset="0%" stop-color="#06B6D4" stop-opacity="0.18"/><stop offset="100%" stop-color="#06B6D4" stop-opacity="0"/></radialGradient>
</defs>
<rect width="100%" height="100%" fill="#0F172A"/>
<line x1="0" y1="0" x2="0" y2="900" stroke="#1A5797" stroke-opacity="0.12" stroke-width="1" />
<line x1="48" y1="0" x2="48" y2="900" stroke="#1A5797" stroke-opacity="0.12" stroke-width="1" />
<line x1="96" y1="0" x2="96" y2="900" stroke="#1A5797" stroke-opacity="0.12" stroke-width="1" />
<line x1="144" y1="0" x2="144" y2="900" stroke="#1A5797" stroke-opacity="0.12" stroke-width="1" />
<line x1="192" y1="0" x2="192" y2="900" stroke="#1A5797" stroke-opacity="0.12" stroke-width="1" />
<line x1="240" y1="0" x2="240" y2="900" stroke="#1A5797" stroke-opacity="0.12" stroke-width="1" />
<line x1="288" y1="0" x2="288" y2="900" stroke="#1A5797" stroke-opacity="0.12" stroke-width="1" />
<line x1="336" y1="0" x2="336" y2="900" stroke="#1A5797" stroke-opacity="0.12" stroke-width="1" />
<line x1="384" y1="0" x2="384" y2="900" stroke="#1A5797" stroke-opacity="0.12" stroke-width="1" />
<line x1="432" y1="0" x2="432" y2="900" stroke="#1A5797" stroke-opacity="0.12" stroke-width="1" />
<line x1="480" y1="0" x2="480" y2="900" stroke="#1A5797" stroke-opacity="0.12" stroke-width="1" />
<line x1="528" y1="0" x2="528" y2="900" stroke="#1A5797" stroke-opacity="0.12" stroke-width="1" />
<line x1="576" y1="0" x2="576" y2="900" stroke="#1A5797" stroke-opacity="0.12" stroke-width="1" />
<line x1="624" y1="0" x2="624" y2="900" stroke="#1A5797" stroke-opacity="0.12" stroke-width="1" />
<line x1="672" y1="0" x2="672" y2="900" stroke="#1A5797" stroke-opacity="0.12" stroke-width="1" />
<line x1="720" y1="0" x2="720" y2="900" stroke="#1A5797" stroke-opacity="0.12" stroke-width="1" />
<line x1="768" y1="0" x2="768" y2="900" stroke="#1A5797" stroke-opacity="0.12" stroke-width="1" />
<line x1="816" y1="0" x2="816" y2="900" stroke="#1A5797" stroke-opacity="0.12" stroke-width="1" />
<line x1="864" y1="0" x2="864" y2="900" stroke="#1A5797" stroke-opacity="0.12" stroke-width="1" />
<line x1="912" y1="0" x2="912" y2="900" stroke="#1A5797" stroke-opacity="0.12" stroke-width="1" />
<line x1="960" y1="0" x2="960" y2="900" stroke="#1A5797" stroke-opacity="0.12" stroke-width="1" />
<line x1="1008" y1="0" x2="1008" y2="900" stroke="#1A5797" stroke-opacity="0.12" stroke-width="1" />
<line x1="1056" y1="0" x2="1056" y2="900" stroke="#1A5797" stroke-opacity="0.12" stroke-width="1" />
<line x1="1104" y1="0" x2="1104" y2="900" stroke="#1A5797" stroke-opacity="0.12" stroke-width="1" />
<line x1="1152" y1="0" x2="1152" y2="900" stroke="#1A5797" stroke-opacity="0.12" stroke-width="1" />
<line x1="1200" y1="0" x2="1200" y2="900" stroke="#1A5797" stroke-opacity="0.12" stroke-width="1" />
<line x1="1248" y1="0" x2="1248" y2="900" stroke="#1A5797" stroke-opacity="0.12" stroke-width="1" />
<line x1="1296" y1="0" x2="1296" y2="900" stroke="#1A5797" stroke-opacity="0.12" stroke-width="1" />
<line x1="1344" y1="0" x2="1344" y2="900" stroke="#1A5797" stroke-opacity="0.12" stroke-width="1" />
<line x1="1392" y1="0" x2="1392" y2="900" stroke="#1A5797" stroke-opacity="0.12" stroke-width="1" />
<line x1="1440" y1="0" x2="1440" y2="900" stroke="#1A5797" stroke-opacity="0.12" stroke-width="1" />
<line x1="1488" y1="0" x2="1488" y2="900" stroke="#1A5797" stroke-opacity="0.12" stroke-width="1" />
<line x1="1536" y1="0" x2="1536" y2="900" stroke="#1A5797" stroke-opacity="0.12" stroke-width="1" />
<line x1="1584" y1="0" x2="1584" y2="900" stroke="#1A5797" stroke-opacity="0.12" stroke-width="1" />
<line x1="0" y1="0" x2="1600" y2="0" stroke="#1A5797" stroke-opacity="0.12" stroke-width="1" />
<line x1="0" y1="48" x2="1600" y2="48" stroke="#1A5797" stroke-opacity="0.12" stroke-width="1" />
<line x1="0" y1="96" x2="1600" y2="96" stroke="#1A5797" stroke-opacity="0.12" stroke-width="1" />
<line x1="0" y1="144" x2="1600" y2="144" stroke="#1A5797" stroke-opacity="0.12" stroke-width="1" />
<line x1="0" y1="192" x2="1600" y2="192" stroke="#1A5797" stroke-opacity="0.12" stroke-width="1" />
<line x1="0" y1="240" x2="1600" y2="240" stroke="#1A5797" stroke-opacity="0.12" stroke-width="1" />
<line x1="0" y1="288" x2="1600" y2="288" stroke="#1A5797" stroke-opacity="0.12" stroke-width="1" />
<line x1="0" y1="336" x2="1600" y2="336" stroke="#1A5797" stroke-opacity="0.12" stroke-width="1" />
<line x1="0" y1="384" x2="1600" y2="384" stroke="#1A5797" stroke-opacity="0.12" stroke-width="1" />
<line x1="0" y1="432" x2="1600" y2="432" stroke="#1A5797" stroke-opacity="0.12" stroke-width="1" />
<line x1="0" y1="480" x2="1600" y2="480" stroke="#1A5797" stroke-opacity="0.12" stroke-width="1" />
<line x1="0" y1="528" x2="1600" y2="528" stroke="#1A5797" stroke-opacity="0.12" stroke-width="1" />
<line x1="0" y1="576" x2="1600" y2="576" stroke="#1A5797" stroke-opacity="0.12" stroke-width="1" />
<line x1="0" y1="624" x2="1600" y2="624" stroke="#1A5797" stroke-opacity="0.12" stroke-width="1" />
<line x1="0" y1="672" x2="1600" y2="672" stroke="#1A5797" stroke-opacity="0.12" stroke-width="1" />
<line x1="0" y1="720" x2="1600" y2="720" stroke="#1A5797" stroke-opacity="0.12" stroke-width="1" />
<line x1="0" y1="768" x2="1600" y2="768" stroke="#1A5797" stroke-opacity="0.12" stroke-width="1" />
<line x1="0" y1="816" x2="1600" y2="816" stroke="#1A5797" stroke-opacity="0.12" stroke-width="1" />
<line x1="0" y1="864" x2="1600" y2="864" stroke="#1A5797" stroke-opacity="0.12" stroke-width="1" />
<rect x="0" y="0" width="1600" height="900" fill="url(#g1)"/>

<rect x="0" y="0" width="1600" height="900" fill="url(#g2)"/>

</svg>